PathFileType	4	(X/Y/Z)	C:\Users\Basilio\Documents\Thesis Gigler\squatting_fais\c3dfiles\044\SJ_pre4\markers_experimental.trc
DataRate	CameraRate	NumFrames	NumMarkers	Units	OrigDataRate	OrigDataStartFrame	OrigNumFrames
200.000000	200.000000	4	63	mm	200.000000	0	1425
Frame#	Time	FHD			LBHD			RBHD			C7			T10			CLAV			LSHO			LUUPA			LMUPA			LDUPA			LLEP			LMEP			LRAD			LUL			LRFIN			RSHO			RUPA1			RMUPA			RDUPA			RLEP			RMEP			RRAD			RUL			RUFIN			LASI			RASI			USACR			LSACR			LTHI1			LTHI2			LTHI3			LTHI4			LLFC			LMFC			LTIB1			LTIB2			LTIB3			LTIB4			LLMAL			LMMAL			LHEE			LMT1			LMT2			LMT5			RTHI			RTHI2			RTHI3			RTHI4			RLFC			RMFC			RTIB1			RTIB2			RTIB3			RTIB4			RLMAL			RMMAL			RHEE			RMT1			RMT2			RMT5			RSACR			*61			*62			
		X1	Y1	Z1	X2	Y2	Z2	X3	Y3	Z3	X4	Y4	Z4	X5	Y5	Z5	X6	Y6	Z6	X7	Y7	Z7	X8	Y8	Z8	X9	Y9	Z9	X10	Y10	Z10	X11	Y11	Z11	X12	Y12	Z12	X13	Y13	Z13	X14	Y14	Z14	X15	Y15	Z15	X16	Y16	Z16	X17	Y17	Z17	X18	Y18	Z18	X19	Y19	Z19	X20	Y20	Z20	X21	Y21	Z21	X22	Y22	Z22	X23	Y23	Z23	X24	Y24	Z24	X25	Y25	Z25	X26	Y26	Z26	X27	Y27	Z27	X28	Y28	Z28	X29	Y29	Z29	X30	Y30	Z30	X31	Y31	Z31	X32	Y32	Z32	X33	Y33	Z33	X34	Y34	Z34	X35	Y35	Z35	X36	Y36	Z36	X37	Y37	Z37	X38	Y38	Z38	X39	Y39	Z39	X40	Y40	Z40	X41	Y41	Z41	X42	Y42	Z42	X43	Y43	Z43	X44	Y44	Z44	X45	Y45	Z45	X46	Y46	Z46	X47	Y47	Z47	X48	Y48	Z48	X49	Y49	Z49	X50	Y50	Z50	X51	Y51	Z51	X52	Y52	Z52	X53	Y53	Z53	X54	Y54	Z54	X55	Y55	Z55	X56	Y56	Z56	X57	Y57	Z57	X58	Y58	Z58	X59	Y59	Z59	X60	Y60	Z60	X61	Y61	Z61	X62	Y62	Z62	X63	Y63	Z63	

1	0	-269.3810119628907	1802.542114257813	-970.0156860351565	-348.5699462890626	1706.6953125	-1062.880249023438	-390.0361633300782	1652.51416015625	-905.866149902344	-384.0412597656251	1541.705078125	-981.8709716796877	-433.6647949218751	1240.941650390625	-972.241394042969	-247.4371185302735	1493.18212890625	-972.2785644531252	-281.4179992675782	1522.064819335938	-1154.656494140625	-361.3098754882813	1353.394287109375	-1299.077758789063	-330.8515014648438	1313.510864257813	-1290.93017578125	-373.2704772949219	1292.4111328125	-1330.153930664063	-373.9822692871094	1233.038330078125	-1343.252319335938	-443.4502563476564	1228.568603515625	-1294.033203125	-342.2393798828126	1002.1064453125	-1181.665161132813	-300.3015136718751	987.8461914062502	-1234.018798828125	-288.8422546386719	1011.047668457031	-1141.692749023438	-304.8000793457032	1521.639892578125	-780.2254028320315	-399.4961547851564	1356.342651367188	-649.2112426757814	-369.1649475097657	1315.477783203125	-649.3942260742189	-414.2234802246095	1295.41162109375	-616.3763427734376	-414.1121826171876	1233.849243164063	-600.7616577148439	-481.0691833496095	1226.156982421875	-655.8870239257814	-371.9931030273438	998.421325683594	-747.1585693359376	-345.4247436523438	978.9486083984377	-682.0239257812501	-310.0218200683594	986.2534179687502	-782.719177246094	-260.4901733398438	1030.98681640625	-1069.810180664063	-273.3506469726563	1004.6787109375	-853.7019653320315	-431.5394287109376	1083.7001953125	-964.7856445312502	-435.8749389648439	1052.45654296875	-993.6191406250002	-353.5190429687501	803.0645751953127	-1160.326171875	-321.8509826660157	724.3798828125001	-1156.86962890625	-275.0329895019532	726.3812866210939	-1146.11962890625	-350.2550354003907	672.4949951171876	-1148.893432617188	-340.6810302734376	512.9708862304689	-1136.593872070313	-340.5596923828126	502.0267944335939	-1015.184448242188	-330.2166748046876	333.6250915527344	-1070.3623046875	-355.2105407714844	290.1197204589844	-1144.79248046875	-326.9113769531251	287.1240539550782	-1107.004638671875	-346.7310180664063	209.0443420410157	-1080.89208984375	-402.4835815429689	94.88896942138673	-1134.155395507813	-381.3954162597657	97.95323181152347	-1048.9140625	-458.7727355957032	46.73632431030274	-1084.928833007813	-242.6252593994141	60.62733459472658	-1073.085571289063	-246.2040710449219	61.89411544799806	-1119.219116210938	-281.1339416503907	40.58540344238282	-1165.476318359375	-377.2664489746094	748.6765136718751	-771.5001220703127	-335.5987243652344	697.8692016601564	-754.6973876953126	-302.0918273925782	701.7576904296876	-755.3799438476564	-352.7553710937501	615.7261962890626	-767.0783081054689	-346.7213745117188	505.3342285156251	-760.6458740234376	-335.9003906250001	484.7671508789064	-881.246520996094	-307.6357727050782	372.9201965332032	-765.8472290039064	-388.0504455566407	312.9970397949219	-721.2916259765626	-345.7012634277344	301.2904968261719	-732.7927856445314	-336.9396667480469	246.6523132324219	-750.3653564453126	-414.6819458007814	96.71189117431643	-725.2785034179689	-386.5173645019532	99.50826263427737	-806.5902099609377	-464.3423767089845	48.98569488525392	-771.7852783203127	-254.6041717529297	61.72131347656251	-771.0012817382815	-248.7772827148438	60.98983764648439	-732.6239624023439	-288.5401306152344	38.85436248779298	-682.7626342773439	nan	nan	nan	nan	nan	nan	nan	nan	nan	
2	0.005	-270.3208007812501	1802.26513671875	-967.2868652343752	-350.8952636718751	1707.440673828125	-1060.15234375	-389.9579162597657	1650.44482421875	-904.7649536132815	-383.9127502441407	1541.6181640625	-982.9182128906252	-433.7077636718751	1240.948974609375	-972.8251953125002	-247.3214416503907	1493.271240234375	-973.4674072265627	-281.3397827148438	1521.882202148438	-1155.64892578125	-360.6972961425782	1352.963134765625	-1300.187622070313	-330.3142700195313	1313.061645507813	-1291.809936523438	-372.7996826171876	1291.861328125	-1331.005737304688	-373.6449584960938	1232.54736328125	-1343.936645507813	-443.0824584960939	1228.130126953125	-1295.118286132813	-342.2605285644532	1002.006408691406	-1181.690673828125	-300.3180847167969	987.5159301757815	-1233.88818359375	-288.9507141113282	1010.997009277344	-1141.63623046875	-303.8903503417969	1521.757934570313	-781.567565917969	-399.7176513671876	1357.34912109375	-650.4858398437501	-368.7972717285157	1315.9931640625	-650.1640014648439	-413.9178466796876	1296.1171875	-616.9921264648439	-413.9540100097657	1234.703125	-601.3865966796876	-480.7661437988282	1226.714721679688	-656.4853515625001	-372.1919860839844	998.7421875000002	-747.0689086914064	-345.4849243164063	979.3011474609377	-681.9782104492189	-310.1488647460938	986.4636840820315	-782.7105712890627	-260.7256469726563	1030.89501953125	-1069.745727539063	-273.3229064941407	1004.319641113281	-852.5628051757815	-431.745330810547	1083.755981445313	-964.7845458984377	-436.0981750488282	1052.445922851563	-993.549255371094	-353.6318359375001	803.0661621093752	-1160.235473632813	-321.9750976562501	724.4113769531251	-1156.811279296875	-275.2081604003907	726.3737182617189	-1146.079467773438	-350.3588256835938	672.4824218750001	-1148.848510742188	-340.7337646484376	512.9597778320314	-1136.510375976563	-340.6497192382813	502.0420532226564	-1015.189453125	-330.2193908691407	333.6384887695313	-1070.359741210938	-355.2479858398438	290.1132507324219	-1144.729248046875	-327.0515441894532	287.0701599121094	-1106.98779296875	-346.7329711914063	208.9898681640626	-1080.88232421875	-402.5104370117189	95.40618896484376	-1133.989990234375	-381.3906860351563	97.93370056152347	-1048.909912109375	-458.7748413085939	46.74034881591798	-1084.9013671875	-242.5657196044922	60.63684844970705	-1073.065551757813	-246.1829376220704	61.90596008300783	-1119.214233398438	-281.1218566894532	40.63022613525391	-1165.47119140625	-377.4732360839844	748.6500854492189	-771.452087402344	-335.7709350585938	697.9326782226564	-754.6252441406251	-302.2039794921876	701.7991333007814	-755.2988281250001	-352.9528198242188	615.7868652343751	-766.9774780273439	-346.8042907714844	505.3526306152345	-760.5515136718751	-336.0638427734376	484.8498535156251	-881.1399536132815	-307.7310180664063	372.9249572753907	-765.7648315429689	-388.1641235351564	312.9591369628907	-721.1988525390626	-345.8259887695313	301.3861999511719	-732.6788940429689	-336.9588623046876	246.6705322265626	-750.3347167968751	-414.6994018554689	96.67850494384768	-725.2484741210939	-386.5153198242189	99.51113128662112	-806.5690917968752	-464.337371826172	48.96616744995119	-771.770690917969	-254.6931915283204	61.71027755737306	-770.9998168945315	-248.7689819335938	60.99754333496095	-732.5953979492189	-288.5639953613282	38.8182716369629	-682.7554321289064	nan	nan	nan	nan	nan	nan	nan	nan	nan	
3	0.01	-271.5063476562501	1802.037231445313	-964.2122802734377	-353.1764526367188	1708.404174804688	-1057.64013671875	-389.8355407714845	1648.593627929688	-903.8795166015627	-383.7626953125001	1541.565673828125	-984.1162109375002	-433.7341308593751	1240.951416015625	-973.580261230469	-247.1775054931641	1493.171997070313	-974.496032714844	-281.1611938476563	1521.804321289063	-1156.84130859375	-360.2654418945313	1352.553344726563	-1301.265991210938	-329.2908325195313	1313.011352539063	-1293.384765625	-372.5571899414063	1291.2373046875	-1331.915161132813	-373.1707763671876	1231.851440429688	-1344.5439453125	-442.8658447265626	1227.75439453125	-1295.996948242188	-342.3182373046876	1001.854919433594	-1181.709350585938	-300.3913574218751	987.1570434570315	-1233.761352539063	-289.0192871093751	1010.862731933594	-1141.6015625	-303.5695190429688	1521.881225585938	-782.6748657226565	-398.6623535156251	1357.437255859375	-650.8893432617189	-368.2684631347657	1316.558471679688	-651.2587890625001	-413.2959289550782	1296.661987304688	-617.8472900390626	-413.4920654296876	1235.252197265625	-602.0495605468751	-480.6024780273439	1227.393432617188	-657.0656127929689	-372.7382812500001	998.3253173828127	-746.4255371093751	-345.5009765625001	979.7107543945315	-681.8746337890626	-310.2536315917969	986.5716552734377	-782.6958618164065	-260.8452453613282	1030.863647460938	-1069.735107421875	-273.5048522949219	1004.342163085938	-852.5007324218752	-431.9286499023439	1084.458740234375	-964.9390869140627	-436.282440185547	1052.461791992188	-993.513610839844	-353.7770690917969	803.0555419921877	-1160.165771484375	-322.1393737792969	724.3843994140626	-1156.771118164063	-275.2322998046876	726.4558105468751	-1146.005493164063	-350.5011596679688	672.4837646484376	-1148.789306640625	-340.8384399414063	512.9756469726564	-1136.483276367188	-340.7141723632813	501.9986877441407	-1015.066589355469	-330.4284057617188	333.5899963378907	-1070.27197265625	-355.2781677246094	290.1106872558594	-1144.691162109375	-327.1520996093751	287.0606384277344	-1106.91650390625	-346.7540893554688	208.9869079589844	-1080.819702148438	-402.5080871582032	94.89617919921876	-1134.10986328125	-381.4144287109376	97.91150665283206	-1048.887329101563	-458.7503967285157	46.71026229858399	-1084.879028320313	-242.5583190917969	60.61548995971681	-1073.10107421875	-246.2289428710938	61.88171005249025	-1119.225219726563	-281.1168212890626	40.60891342163087	-1165.476196289063	-377.6098327636719	748.6650390625001	-771.4148559570315	-335.9106750488282	697.9327392578126	-754.5369262695314	-302.3681030273438	701.8815307617189	-755.2130737304689	-353.0901489257813	615.7619628906251	-766.8721923828126	-346.9782104492188	505.3188476562501	-760.4702758789064	-336.1749267578126	484.8904418945314	-881.060241699219	-307.7871093750001	372.9746704101563	-765.7224731445314	-388.2569274902345	312.9530334472657	-721.1416625976564	-345.9220275878907	301.3942565917969	-732.6351928710939	-337.0228576660157	246.6750488281251	-750.3112182617189	-414.7107849121095	96.68402099609378	-725.2208862304689	-386.459442138672	99.55738067626956	-806.5662841796877	-464.3282470703126	48.96114730834962	-771.7939453125002	-254.7200012207032	61.7053565979004	-770.9307250976565	-248.6029815673829	60.51207733154298	-731.9649658203126	-288.5733337402344	38.8042221069336	-682.7597656250001	nan	nan	nan	nan	nan	nan	nan	nan	nan	
4	0.015	-272.4262390136719	1801.454467773438	-961.1663818359377	-353.4274597167969	1708.158203125	-1057.343383789063	-389.5794677734376	1646.416870117188	-902.9507446289065	-383.6807250976563	1541.531127929688	-985.197937011719	-433.9357299804689	1240.928466796875	-974.1506347656252	-246.4900512695313	1493.30029296875	-975.8743286132815	-281.1867065429688	1521.84423828125	-1158.040283203125	-359.9192810058594	1352.107177734375	-1302.256469726563	-329.5282287597657	1312.032592773438	-1293.5341796875	-371.6268920898438	1290.76904296875	-1333.053588867188	-372.6849365234376	1231.3251953125	-1345.265625	-442.5653381347657	1227.452514648438	-1297.0771484375	-342.4255981445313	1001.773254394531	-1181.720825195313	-300.3775634765626	986.932556152344	-1233.707397460938	-289.1294250488282	1010.800964355469	-1141.557373046875	-302.6898803710938	1522.075927734375	-783.907409667969	-398.0936889648439	1358.01318359375	-651.8570556640626	-368.1376953125001	1317.034545898438	-651.8839721679689	-413.0514221191407	1297.364013671875	-618.6590576171876	-413.2235717773439	1236.031372070313	-602.6202392578126	-480.435516357422	1228.12353515625	-657.5545654296876	-372.8238525390626	998.568298339844	-746.3582763671876	-345.6213989257813	980.1331787109377	-681.7432861328126	-310.4424438476563	986.7139892578127	-782.667419433594	-261.0739440917969	1030.73388671875	-1069.67138671875	-273.6973266601563	1004.48583984375	-852.514343261719	-432.087615966797	1084.493896484375	-964.9050292968752	-436.4821777343751	1052.448608398438	-993.4470825195315	-353.9044189453126	803.0869750976565	-1160.1142578125	-322.1735839843751	724.3880004882814	-1156.719116210938	-275.3419799804688	726.4420166015626	-1145.948974609375	-350.6041870117188	672.4853515625001	-1148.741455078125	-340.9450378417969	512.9838256835939	-1136.393676757813	-340.8438720703126	502.038543701172	-1014.969787597656	-330.4249267578126	333.5676574707032	-1070.275512695313	-355.4021911621094	290.1427612304688	-1144.654663085938	-327.1968383789063	287.0493164062501	-1106.911743164063	-346.7355346679688	209.0205841064454	-1080.861450195313	-402.492401123047	94.89402770996095	-1134.098876953125	-381.4092712402344	97.9284362792969	-1048.876708984375	-458.7908325195314	46.77204132080079	-1084.9296875	-242.5667114257813	60.58585357666017	-1073.078247070313	-246.1659393310547	61.85874557495119	-1119.20361328125	-281.1168823242188	40.60883712768555	-1165.476196289063	-377.8439331054688	748.7341308593751	-771.246032714844	-335.9793090820313	697.9371948242189	-754.4873657226564	-302.5397644042969	701.8819580078126	-755.1047363281251	-353.3045043945313	615.8222656250001	-766.7084350585939	-347.0625305175782	505.3240051269532	-760.3928222656251	-336.3414001464844	484.8683166503907	-880.9497070312502	-307.8433227539063	373.0159301757813	-765.7279052734376	-388.2464294433595	312.9520568847657	-721.1097412109376	-346.0282287597657	301.3612365722657	-732.5584716796876	-337.0652770996094	246.7050018310547	-750.2421264648439	-414.7471618652345	96.65030670166018	-725.1625976562501	-386.4811401367189	99.55552673339847	-806.5074462890627	-464.3763732910157	48.96572113037111	-771.7829589843752	-254.6622009277344	61.74492645263673	-770.9320068359377	-248.7658233642579	60.99598312377931	-732.5661621093751	-288.5553588867188	38.80434799194337	-682.7489624023439	nan	nan	nan	nan	nan	nan	nan	nan	nan	
